<?xml version="1.0" encoding="iso-8859-1"?>
<!-- Generator: Adobe Illustrator 18.0.0, SVG Export Plug-In . SVG Version: 6.00 Build 0)  -->
<!DOCTYPE svg PUBLIC "-//W3C//DTD SVG 1.1//EN" "http://www.w3.org/Graphics/SVG/1.1/DTD/svg11.dtd">
<svg version="1.1" id="Capa_1" xmlns="http://www.w3.org/2000/svg" xmlns:xlink="http://www.w3.org/1999/xlink" x="0px" y="0px"
	 viewBox="0 0 295.325 295.325" style="enable-background:new 0 0 295.325 295.325;" xml:space="preserve">
<g id="XMLID_57_">
	<path id="XMLID_60_" d="M100.069,186.828c1.302-1.303,1.886-3.151,1.58-4.967l-7.722-45.43c-0.192-1.159-1.025-2.107-2.137-2.461
		c-1.122-0.355-2.338-0.059-3.171,0.77l-8.661,8.66L40.498,103.94c-1.063-1.063-2.51-1.662-4.014-1.662
		c-1.505,0-2.951,0.599-4.015,1.666l-15.291,15.295c-2.213,2.22-2.213,5.81,0,8.028l39.463,39.462l-8.661,8.66
		c-0.834,0.83-1.132,2.05-0.776,3.172c0.364,1.115,1.313,1.939,2.463,2.137l45.429,7.711
		C96.916,188.722,98.766,188.128,100.069,186.828z"/>
	<path id="XMLID_59_" d="M259.866,75.487c-12.854-2.059-25.041,6.721-27.111,19.63L217.8,188.602l-44.079-9.877
		c-8.67-1.95-17.8,1.163-23.47,8.081l-57.3,69.83c-8.297,10.107-6.821,25.022,3.285,33.315c4.397,3.61,9.715,5.374,15.002,5.374
		c6.841,0,13.634-2.955,18.308-8.656l48.057-58.56l54.414,12.196c6.354,1.418,13.049,0.158,18.462-3.506
		c5.404-3.665,9.054-9.402,10.089-15.851l18.939-118.351C281.566,89.69,272.78,77.552,259.866,75.487z"/>
	<path id="XMLID_58_" d="M245.353,67.46c18.634,0,33.732-15.104,33.732-33.729C279.085,15.104,263.986,0,245.353,0
		C226.73,0,211.63,15.104,211.63,33.731C211.63,52.355,226.73,67.46,245.353,67.46z"/>
</g>
<g>
</g>
<g>
</g>
<g>
</g>
<g>
</g>
<g>
</g>
<g>
</g>
<g>
</g>
<g>
</g>
<g>
</g>
<g>
</g>
<g>
</g>
<g>
</g>
<g>
</g>
<g>
</g>
<g>
</g>
</svg>
