<?xml version="1.0" encoding="iso-8859-1"?>
<!-- Generator: Adobe Illustrator 18.0.0, SVG Export Plug-In . SVG Version: 6.00 Build 0)  -->
<!DOCTYPE svg PUBLIC "-//W3C//DTD SVG 1.1//EN" "http://www.w3.org/Graphics/SVG/1.1/DTD/svg11.dtd">
<svg version="1.1" id="Capa_1" xmlns="http://www.w3.org/2000/svg" xmlns:xlink="http://www.w3.org/1999/xlink" x="0px" y="0px"
	 viewBox="0 0 295.326 295.326" style="enable-background:new 0 0 295.326 295.326;" xml:space="preserve">
<g id="XMLID_66_">
	<path id="XMLID_69_" d="M98.271,79.851c0,1.174,0.651,2.247,1.694,2.789c1.047,0.535,2.301,0.444,3.258-0.229l37.574-26.673
		c1.504-1.068,2.396-2.792,2.396-4.632c0-1.839-0.893-3.563-2.396-4.633l-37.574-26.67c-0.957-0.677-2.211-0.768-3.258-0.23
		c-1.043,0.541-1.694,1.614-1.694,2.787v12.254H42.465c-3.143,0-5.682,2.543-5.682,5.682v21.621c0,3.139,2.539,5.682,5.682,5.682
		h55.806V79.851z"/>
	<path id="XMLID_68_" d="M238.603,75.487c-12.847-2.06-25.034,6.721-27.112,19.63l-14.954,93.485l-44.08-9.878
		c-8.679-1.949-17.8,1.163-23.471,8.081l-57.3,69.831c-8.297,10.107-6.822,25.022,3.285,33.315c4.397,3.61,9.714,5.374,15.004,5.374
		c6.839,0,13.633-2.955,18.308-8.656l48.054-58.56l54.417,12.196c6.351,1.418,13.048,0.158,18.462-3.506
		c5.402-3.665,9.052-9.403,10.086-15.851L258.243,102.6C260.303,89.69,251.517,77.553,238.603,75.487z"/>
	<path id="XMLID_67_" d="M224.088,67.46c18.635,0,33.732-15.104,33.732-33.728C257.82,15.104,242.723,0,224.088,0
		c-18.624,0-33.722,15.104-33.722,33.732C190.366,52.355,205.464,67.46,224.088,67.46z"/>
</g>
<g>
</g>
<g>
</g>
<g>
</g>
<g>
</g>
<g>
</g>
<g>
</g>
<g>
</g>
<g>
</g>
<g>
</g>
<g>
</g>
<g>
</g>
<g>
</g>
<g>
</g>
<g>
</g>
<g>
</g>
</svg>
