<?xml version="1.0" ?><svg id="Layer_1_1_" style="enable-background:new 0 0 64 64;" version="1.1" viewBox="0 0 64 64" xml:space="preserve" xmlns="http://www.w3.org/2000/svg" xmlns:xlink="http://www.w3.org/1999/xlink"><path d="M52,43h-1V27.417c0-4.324-2.647-8.041-6.407-9.614C46.054,16.707,47,14.962,47,13V7  c0-3.309-2.691-6-6-6H23c-3.309,0-6,2.691-6,6v6c0,1.962,0.946,3.707,2.407,4.803C15.647,19.376,13,23.093,13,27.417V43h-1  c-1.654,0-3,1.346-3,3v4c0,1.654,1.346,3,3,3h5.34l-1.055,3.014C16.096,56.558,16,57.123,16,57.696v0.209  C16,60.714,18.285,63,21.095,63c2.162,0,4.095-1.371,4.81-3.412L28.21,53h7.58l2.306,6.588C38.811,61.629,40.743,63,42.905,63  C45.715,63,48,60.714,48,57.905v-0.209c0-0.573-0.096-1.138-0.285-1.683L46.66,53H52c1.654,0,3-1.346,3-3v-4  C55,44.346,53.654,43,52,43z M49,27.417V43h-5.841l-0.378-1.079C44.614,41.556,46,39.938,46,38V25c0-2.757-2.243-5-5-5h-3.726  c0.348-0.306,0.671-0.639,0.961-1h2.348C45.225,19,49,22.775,49,27.417z M38,26v10.089C37.704,36.035,37.403,36,37.095,36  C34.285,36,32,38.286,32,41.095C32,38.286,29.715,36,26.905,36c-0.308,0-0.609,0.035-0.905,0.089V26h-2v10.915  c-0.862,0.599-1.541,1.46-1.904,2.496l-0.202,0.578C20.841,39.933,20,39.067,20,38V25c0-1.654,1.346-3,3-3h9h9c1.654,0,3,1.346,3,3  v13c0,1.067-0.842,1.933-1.894,1.989l-0.202-0.578c-0.363-1.036-1.042-1.897-1.903-2.496V26H38z M32.29,43h-0.58l0.005-0.014  C31.904,42.442,32,41.877,32,41.304c0,0.573,0.096,1.138,0.285,1.683L32.29,43z M26,14c0-3.309,2.691-6,6-6s6,2.691,6,6  s-2.691,6-6,6S26,17.309,26,14z M19,13V7c0-2.206,1.794-4,4-4h18c2.206,0,4,1.794,4,4v6c0,2.206-1.794,4-4,4h-0.417h-1.172  C39.788,16.073,40,15.061,40,14c0-4.411-3.589-8-8-8s-8,3.589-8,8c0,1.061,0.212,2.073,0.589,3h-1.172H23C20.794,17,19,15.206,19,13  z M15,27.417C15,22.775,18.775,19,23.417,19h2.348c0.29,0.361,0.614,0.694,0.961,1H23c-2.757,0-5,2.243-5,5v13  c0,1.938,1.385,3.556,3.218,3.921L20.84,43H15V27.417z M12,51c-0.552,0-1-0.449-1-1v-4c0-0.551,0.448-1,1-1h8.14l-2.1,6H12z   M24.017,58.927C23.582,60.167,22.408,61,21.095,61C19.389,61,18,59.612,18,57.905v-0.209c0-0.348,0.059-0.692,0.174-1.022  l5.81-16.601C24.418,38.833,25.592,38,26.905,38C28.611,38,30,39.388,30,41.095v0.209c0,0.348-0.059,0.692-0.174,1.022  L24.017,58.927z M28.91,51l2.1-6h1.98l2.1,6H28.91z M46,57.905C46,59.612,44.611,61,42.905,61c-1.313,0-2.487-0.833-2.921-2.073  l-5.811-16.6C34.059,41.997,34,41.652,34,41.304v-0.209C34,39.388,35.389,38,37.095,38c1.313,0,2.487,0.833,2.921,2.073l5.811,16.6  C45.941,57.003,46,57.348,46,57.696V57.905z M53,50c0,0.551-0.448,1-1,1h-6.04l-2.1-6H52c0.552,0,1,0.449,1,1V50z" style="fill:#3F3A34;"/></svg>