<?xml version="1.0" encoding="iso-8859-1"?>
<!-- Generator: Adobe Illustrator 18.0.0, SVG Export Plug-In . SVG Version: 6.00 Build 0)  -->
<!DOCTYPE svg PUBLIC "-//W3C//DTD SVG 1.1//EN" "http://www.w3.org/Graphics/SVG/1.1/DTD/svg11.dtd">
<svg version="1.1" id="Capa_1" xmlns="http://www.w3.org/2000/svg" xmlns:xlink="http://www.w3.org/1999/xlink" x="0px" y="0px"
	 viewBox="0 0 301.789 301.789" style="enable-background:new 0 0 301.789 301.789;" xml:space="preserve">
<g>
	<path d="M294.289,125.008h-44.895L232.516,81.36c-1.117-2.89-3.896-4.795-6.995-4.795H107.519c-2.641,0-5.087,1.389-6.44,3.656
		l-26.732,44.787H16.867c-3.714,0-6.869,2.719-7.417,6.392l-9.368,62.714c-0.322,2.159,0.312,4.351,1.736,6.004
		c1.425,1.653,3.499,2.604,5.682,2.604H35.21c6.232,13.489,19.948,22.502,35.116,22.502c15.162,0,28.872-9.014,35.099-22.502h96.442
		c6.229,13.489,19.943,22.502,35.108,22.502c15.161,0,28.87-9.014,35.097-22.502h22.218c4.143,0,7.5-3.358,7.5-7.5v-62.714
		C301.789,128.366,298.432,125.008,294.289,125.008z M286.789,187.722h-19.904c-3.342,0-6.28,2.211-7.206,5.422
		c-2.899,10.056-12.236,17.08-22.704,17.08c-10.474,0-19.814-7.024-22.717-17.081c-0.927-3.21-3.864-5.421-7.206-5.421H100.238
		c-3.342,0-6.281,2.211-7.207,5.422c-2.899,10.056-12.236,17.08-22.705,17.08c-10.477,0-19.821-7.024-22.725-17.082
		c-0.926-3.21-3.865-5.42-7.206-5.42H16.204l7.126-47.714h55.275c2.641,0,5.087-1.389,6.44-3.656l26.732-44.787H220.38
		l16.878,43.648c1.117,2.89,3.896,4.795,6.995,4.795h42.536V187.722z"/>
	<path d="M210.099,151.179l-28.499-10.5c-2.303-0.848-4.87-0.517-6.883,0.886c-2.011,1.402-3.21,3.7-3.21,6.152v3h-35.724v-21.846
		h51.462c4.143,0,7.5-3.358,7.5-7.5c0-4.142-3.357-7.5-7.5-7.5h-58.962c-4.142,0-7.5,3.358-7.5,7.5v36.846
		c0,4.142,3.358,7.5,7.5,7.5h43.224v3c0,2.452,1.199,4.749,3.21,6.152c1.276,0.89,2.776,1.348,4.291,1.348
		c0.873,0,1.75-0.152,2.592-0.462l28.499-10.499c2.948-1.087,4.907-3.896,4.907-7.038
		C215.006,155.075,213.047,152.266,210.099,151.179z"/>
</g>
<g>
</g>
<g>
</g>
<g>
</g>
<g>
</g>
<g>
</g>
<g>
</g>
<g>
</g>
<g>
</g>
<g>
</g>
<g>
</g>
<g>
</g>
<g>
</g>
<g>
</g>
<g>
</g>
<g>
</g>
</svg>
