<?xml version="1.0" encoding="iso-8859-1"?>
<!-- Generator: Adobe Illustrator 19.0.0, SVG Export Plug-In . SVG Version: 6.00 Build 0)  -->
<svg version="1.1" id="Capa_1" xmlns="http://www.w3.org/2000/svg" xmlns:xlink="http://www.w3.org/1999/xlink" x="0px" y="0px"
	 viewBox="0 0 512 512" style="enable-background:new 0 0 512 512;" xml:space="preserve">
<g>
	<g>
		<path d="M502.248,77.206c-158.797-59.301-333.699-59.301-492.496,0L0,80.848v27.326l63.398,244.084h98.638
			c16.928,14.018,26.192,31.621,26.192,50c0,19.709-10.648,38.527-29.983,52.988l17.967,24.024
			c27.095-20.264,42.017-47.614,42.017-77.012c0-17.79-5.473-34.827-15.792-50h47.601c16.928,14.018,26.192,31.621,26.192,50
			c0,19.709-10.648,38.527-29.983,52.988l17.967,24.024c27.095-20.264,42.017-47.614,42.017-77.012c0-17.79-5.473-34.827-15.792-50
			h47.601c16.928,14.018,26.192,31.621,26.192,50c0,19.709-10.648,38.527-29.983,52.988l17.967,24.024
			c27.095-20.264,42.017-47.614,42.017-77.012c0-17.79-5.473-34.827-15.792-50h70.167L512,108.174V80.848L502.248,77.206z
			 M482,104.341l-56.602,217.917h-76.979c-16.928-14.018-26.192-31.621-26.192-50c0-19.709,10.648-38.527,29.983-52.988
			l-17.967-24.024c-27.095,20.264-42.017,47.614-42.017,77.012c0,17.79,5.473,34.827,15.792,50h-47.601
			c-16.928-14.018-26.192-31.621-26.192-50c0-19.709,10.648-38.527,29.983-52.988l-17.967-24.024
			c-27.095,20.264-42.017,47.614-42.017,77.012c0,17.79,5.473,34.827,15.792,50h-47.601c-16.928-14.018-26.192-31.621-26.192-50
			c0-19.709,10.648-38.527,29.983-52.988l-17.967-24.024c-27.095,20.264-42.017,47.614-42.017,77.012
			c0,17.79,5.473,34.827,15.792,50H86.602L30,104.341v-2.588c146.148-52.026,305.852-52.026,452,0V104.341z"/>
	</g>
</g>
<g>
</g>
<g>
</g>
<g>
</g>
<g>
</g>
<g>
</g>
<g>
</g>
<g>
</g>
<g>
</g>
<g>
</g>
<g>
</g>
<g>
</g>
<g>
</g>
<g>
</g>
<g>
</g>
<g>
</g>
</svg>
